<svg width="385" height="90" viewBox="0 0 385 90" fill="none" xmlns="http://www.w3.org/2000/svg">
<path d="M123.472 63V29.4H132.4L145.84 48.936L138.832 48.888L152.416 29.4H161.152V63H151.168V54.792C151.168 52.008 151.232 49.464 151.36 47.16C151.52 44.824 151.776 42.488 152.128 40.152L153.232 43.272L143.824 55.944H140.656L131.296 43.176L132.496 40.152C132.848 42.424 133.088 44.712 133.216 47.016C133.376 49.288 133.456 51.88 133.456 54.792V63H123.472ZM171.985 74.04L179.329 58.968L179.041 62.856L165.793 37.32H176.881L181.921 48.024C182.241 48.792 182.561 49.592 182.881 50.424C183.233 51.224 183.553 52.088 183.841 53.016L182.017 53.544C182.273 52.968 182.577 52.248 182.929 51.384C183.281 50.52 183.601 49.688 183.889 48.888L188.785 37.32H199.777L186.865 63.096L181.633 74.04H171.985ZM222.191 63.48C219.375 63.48 216.751 63.048 214.319 62.184C211.919 61.32 209.823 60.12 208.031 58.584C206.239 57.048 204.847 55.208 203.855 53.064C202.895 50.92 202.415 48.552 202.415 45.96C202.415 43.368 202.911 41 203.903 38.856C204.895 36.712 206.271 34.872 208.031 33.336C209.823 31.8 211.935 30.6 214.367 29.736C216.799 28.872 219.439 28.44 222.287 28.44C224.079 28.44 225.823 28.648 227.519 29.064C229.215 29.448 230.815 30.008 232.319 30.744C233.823 31.48 235.167 32.376 236.351 33.432L230.303 41.016C229.759 40.44 229.103 39.912 228.335 39.432C227.567 38.952 226.655 38.552 225.599 38.232C224.575 37.912 223.375 37.752 221.999 37.752C220.879 37.752 219.775 37.928 218.687 38.28C217.599 38.632 216.639 39.16 215.807 39.864C214.975 40.568 214.303 41.448 213.791 42.504C213.311 43.528 213.071 44.728 213.071 46.104C213.071 47.384 213.327 48.536 213.839 49.56C214.351 50.552 215.055 51.4 215.951 52.104C216.879 52.776 217.935 53.304 219.119 53.688C220.335 54.072 221.647 54.264 223.055 54.264C224.367 54.264 225.551 54.072 226.607 53.688C227.663 53.304 228.591 52.856 229.391 52.344C230.223 51.8 230.943 51.24 231.551 50.664L236.447 58.488C235.551 59.32 234.351 60.12 232.847 60.888C231.375 61.656 229.711 62.28 227.855 62.76C226.031 63.24 224.143 63.48 222.191 63.48ZM255.079 63.48C251.975 63.48 249.223 62.904 246.823 61.752C244.423 60.6 242.535 59.032 241.159 57.048C239.783 55.032 239.095 52.728 239.095 50.136C239.095 47.544 239.783 45.256 241.159 43.272C242.535 41.256 244.423 39.672 246.823 38.52C249.223 37.368 251.975 36.792 255.079 36.792C258.183 36.792 260.919 37.368 263.287 38.52C265.687 39.672 267.559 41.256 268.903 43.272C270.279 45.256 270.967 47.544 270.967 50.136C270.967 52.728 270.279 55.032 268.903 57.048C267.559 59.032 265.687 60.6 263.287 61.752C260.919 62.904 258.183 63.48 255.079 63.48ZM255.079 55.32C256.199 55.32 257.207 55.096 258.103 54.648C259.031 54.2 259.767 53.592 260.311 52.824C260.855 52.024 261.127 51.128 261.127 50.136C261.127 49.112 260.855 48.2 260.311 47.4C259.767 46.6 259.031 45.992 258.103 45.576C257.207 45.128 256.199 44.904 255.079 44.904C253.959 44.904 252.919 45.128 251.959 45.576C250.999 46.024 250.247 46.632 249.703 47.4C249.191 48.168 248.935 49.08 248.935 50.136C248.935 51.128 249.191 52.024 249.703 52.824C250.247 53.592 250.999 54.2 251.959 54.648C252.919 55.096 253.959 55.32 255.079 55.32ZM277.385 63V27.48H287.129V63H277.385ZM309.132 63.48C306.028 63.48 303.276 62.904 300.876 61.752C298.476 60.6 296.588 59.032 295.212 57.048C293.836 55.032 293.148 52.728 293.148 50.136C293.148 47.544 293.836 45.256 295.212 43.272C296.588 41.256 298.476 39.672 300.876 38.52C303.276 37.368 306.028 36.792 309.132 36.792C312.236 36.792 314.972 37.368 317.34 38.52C319.74 39.672 321.612 41.256 322.956 43.272C324.332 45.256 325.02 47.544 325.02 50.136C325.02 52.728 324.332 55.032 322.956 57.048C321.612 59.032 319.74 60.6 317.34 61.752C314.972 62.904 312.236 63.48 309.132 63.48ZM309.132 55.32C310.252 55.32 311.26 55.096 312.156 54.648C313.084 54.2 313.82 53.592 314.364 52.824C314.908 52.024 315.18 51.128 315.18 50.136C315.18 49.112 314.908 48.2 314.364 47.4C313.82 46.6 313.084 45.992 312.156 45.576C311.26 45.128 310.252 44.904 309.132 44.904C308.012 44.904 306.972 45.128 306.012 45.576C305.052 46.024 304.3 46.632 303.756 47.4C303.244 48.168 302.988 49.08 302.988 50.136C302.988 51.128 303.244 52.024 303.756 52.824C304.3 53.592 305.052 54.2 306.012 54.648C306.972 55.096 308.012 55.32 309.132 55.32ZM331.342 63V37.32H340.366L340.942 46.344L338.398 45.672C338.846 44.008 339.598 42.504 340.654 41.16C341.71 39.816 342.958 38.76 344.398 37.992C345.838 37.192 347.374 36.792 349.006 36.792C349.838 36.792 350.638 36.872 351.406 37.032C352.174 37.16 352.862 37.352 353.47 37.608L350.782 48.312C350.334 47.96 349.646 47.672 348.718 47.448C347.822 47.192 346.878 47.064 345.886 47.064C345.086 47.064 344.382 47.192 343.774 47.448C343.166 47.672 342.654 48.008 342.238 48.456C341.854 48.872 341.566 49.352 341.374 49.896C341.182 50.44 341.086 51.032 341.086 51.672V63H331.342ZM369.344 63.48C366.24 63.48 363.504 63.064 361.136 62.232C358.768 61.368 356.896 60.232 355.52 58.824L361.184 53.88C362.24 54.808 363.568 55.528 365.168 56.04C366.768 56.552 368.368 56.808 369.968 56.808C370.384 56.808 370.768 56.776 371.12 56.712C371.504 56.648 371.808 56.568 372.032 56.472C372.288 56.344 372.48 56.2 372.608 56.04C372.768 55.88 372.848 55.688 372.848 55.464C372.848 55.08 372.576 54.776 372.032 54.552C371.552 54.392 370.88 54.232 370.016 54.072C369.184 53.912 368.272 53.736 367.28 53.544C365.616 53.256 364.128 52.904 362.816 52.488C361.536 52.072 360.432 51.544 359.504 50.904C358.608 50.2 357.904 49.384 357.392 48.456C356.88 47.496 356.624 46.392 356.624 45.144C356.624 43.832 356.96 42.664 357.632 41.64C358.304 40.584 359.232 39.704 360.416 39C361.6 38.296 362.944 37.752 364.448 37.368C365.952 36.984 367.504 36.792 369.104 36.792C370.8 36.792 372.416 36.936 373.952 37.224C375.52 37.512 377.008 37.928 378.416 38.472C379.824 39.016 381.088 39.704 382.208 40.536L377.36 46.152C376.688 45.704 375.872 45.272 374.912 44.856C373.984 44.408 372.96 44.04 371.84 43.752C370.752 43.464 369.664 43.32 368.576 43.32C368.16 43.32 367.776 43.352 367.424 43.416C367.104 43.448 366.832 43.528 366.608 43.656C366.384 43.752 366.208 43.88 366.08 44.04C365.952 44.168 365.888 44.328 365.888 44.52C365.856 44.744 365.904 44.952 366.032 45.144C366.192 45.304 366.4 45.448 366.656 45.576C367.072 45.8 367.696 46.008 368.528 46.2C369.392 46.36 370.496 46.584 371.84 46.872C374.016 47.32 375.824 47.832 377.264 48.408C378.704 48.984 379.84 49.656 380.672 50.424C381.248 50.936 381.68 51.56 381.968 52.296C382.256 53 382.4 53.768 382.4 54.6C382.4 56.296 381.84 57.816 380.72 59.16C379.632 60.472 378.112 61.528 376.16 62.328C374.24 63.096 371.968 63.48 369.344 63.48Z" fill="#090920"/>
<rect width="30" height="90" rx="5" fill="#85FA07"/>
<rect x="39" width="30" height="90" rx="5" fill="#6081F7"/>
<rect x="78" width="30" height="90" rx="5" fill="#414D7A"/>
</svg>
